<svg width="40" height="40" viewBox="0 0 40 40" fill="none" xmlns="http://www.w3.org/2000/svg">
<path d="M34.7557 0H5.24435C2.3522 0 0 2.35283 0 5.24561V34.7544C0 37.6478 2.35283 40 5.24435 40H34.7557C37.6465 40 40 37.6478 40 34.7544V5.24561C40 2.35283 37.6465 0 34.7557 0ZM27.9507 20.2198C27.7003 21.8378 28.21 23.6507 27.7287 27.2947C27.2297 30.9754 26.3649 34.205 24.682 34.205C22.6919 34.205 22.9587 30.5319 23.1908 27.5433C23.259 26.6438 23.3094 25.8666 23.2615 25.3342C23.0596 23.1076 22.1015 21.5394 20.0356 21.5394C17.9818 21.5394 17.0104 23.1076 16.8092 25.3342C16.7612 25.8673 16.8117 26.6444 16.8798 27.5433C17.1119 30.5319 17.3775 34.205 15.3886 34.205C13.7057 34.205 12.8409 30.976 12.3419 27.2947C11.86 23.6507 12.3703 21.8378 12.1193 20.2198C11.6399 17.1542 8.96472 14.4059 9.79042 10.4969C10.249 8.32889 11.4431 7.30891 12.6245 6.87998C15.3502 5.88838 17.1094 7.79903 20.0344 7.79903C22.96 7.79903 24.7192 5.88838 27.4436 6.87998C28.6263 7.30828 29.8198 8.32826 30.2777 10.4969C31.1047 14.4059 28.4282 17.1542 27.9495 20.2198H27.9507Z" fill="#1CA0B9"/>
</svg>
