<svg width="120" height="40" viewBox="0 0 120 40" fill="none" xmlns="http://www.w3.org/2000/svg">
<path d="M34.7557 0H5.24435C2.3522 0 0 2.35283 0 5.24561V34.7544C0 37.6478 2.35283 40 5.24435 40H34.7557C37.6465 40 40 37.6478 40 34.7544V5.24561C40 2.35283 37.6465 0 34.7557 0ZM27.9507 20.2198C27.7003 21.8378 28.21 23.6507 27.7287 27.2947C27.2297 30.9754 26.3649 34.205 24.682 34.205C22.6919 34.205 22.9587 30.5319 23.1908 27.5433C23.259 26.6438 23.3094 25.8666 23.2615 25.3342C23.0596 23.1076 22.1015 21.5394 20.0356 21.5394C17.9818 21.5394 17.0104 23.1076 16.8092 25.3342C16.7612 25.8673 16.8117 26.6444 16.8798 27.5433C17.1119 30.5319 17.3775 34.205 15.3886 34.205C13.7057 34.205 12.8409 30.976 12.3419 27.2947C11.86 23.6507 12.3703 21.8378 12.1193 20.2198C11.6399 17.1542 8.96472 14.4059 9.79042 10.4969C10.249 8.32889 11.4431 7.30891 12.6245 6.87998C15.3502 5.88838 17.1094 7.79903 20.0344 7.79903C22.96 7.79903 24.7192 5.88838 27.4436 6.87998C28.6263 7.30828 29.8198 8.32826 30.2777 10.4969C31.1047 14.4059 28.4282 17.1542 27.9495 20.2198H27.9507Z" fill="#1CA0B9"/>
<path d="M119.787 4.80985V7.24057H112.761V4.80985H119.787ZM114.356 2.01453H117.592V12.892C117.592 13.1908 117.638 13.4237 117.729 13.5908C117.82 13.7529 117.947 13.8668 118.109 13.9326C118.276 13.9985 118.468 14.0314 118.686 14.0314C118.838 14.0314 118.99 14.0187 119.142 13.9934C119.294 13.963 119.41 13.9402 119.491 13.9251L120 16.333C119.838 16.3836 119.61 16.4419 119.316 16.5077C119.023 16.5786 118.666 16.6216 118.245 16.6368C117.465 16.6672 116.782 16.5634 116.194 16.3254C115.612 16.0874 115.159 15.7177 114.835 15.2164C114.511 14.715 114.351 14.082 114.356 13.3174V2.01453Z" fill="#1CA0B9"/>
<path d="M111.278 8.13693L108.315 8.31923C108.265 8.06603 108.156 7.83815 107.989 7.63559C107.822 7.42797 107.601 7.26339 107.328 7.14185C107.06 7.01525 106.738 6.95195 106.363 6.95195C105.862 6.95195 105.439 7.05829 105.095 7.27098C104.75 7.47861 104.578 7.75713 104.578 8.10654C104.578 8.38506 104.69 8.62054 104.912 8.81297C105.135 9.0054 105.518 9.15985 106.059 9.27633L108.171 9.7017C109.305 9.93465 110.151 10.3094 110.708 10.8259C111.265 11.3424 111.544 12.021 111.544 12.8616C111.544 13.6263 111.318 14.2973 110.868 14.8746C110.422 15.4519 109.809 15.9026 109.03 16.2267C108.255 16.5457 107.361 16.7052 106.348 16.7052C104.804 16.7052 103.573 16.3836 102.656 15.7405C101.745 15.0923 101.211 14.2112 101.054 13.0971L104.236 12.93C104.333 13.401 104.566 13.7605 104.935 14.0086C105.305 14.2517 105.778 14.3732 106.356 14.3732C106.923 14.3732 107.379 14.2644 107.723 14.0466C108.072 13.8238 108.25 13.5377 108.255 13.1883C108.25 12.8946 108.126 12.654 107.883 12.4666C107.639 12.2742 107.265 12.1274 106.758 12.0261L104.738 11.6235C103.598 11.3956 102.75 11.0006 102.193 10.4385C101.641 9.87641 101.365 9.15985 101.365 8.28885C101.365 7.53937 101.568 6.89371 101.973 6.35187C102.383 5.81002 102.958 5.39224 103.697 5.09853C104.442 4.80481 105.313 4.65796 106.31 4.65796C107.784 4.65796 108.943 4.96939 109.789 5.59227C110.64 6.21514 111.136 7.06336 111.278 8.13693Z" fill="#1CA0B9"/>
<path d="M95.7421 16.4773V4.80987H98.978V16.4773H95.7421ZM97.3677 3.30586C96.8866 3.30586 96.4739 3.14634 96.1295 2.82731C95.7902 2.50321 95.6206 2.11582 95.6206 1.66512C95.6206 1.21949 95.7902 0.837159 96.1295 0.518127C96.4739 0.194031 96.8866 0.0319824 97.3677 0.0319824C97.8488 0.0319824 98.2589 0.194031 98.5982 0.518127C98.9426 0.837159 99.1148 1.21949 99.1148 1.66512C99.1148 2.11582 98.9426 2.50321 98.5982 2.82731C98.2589 3.14634 97.8488 3.30586 97.3677 3.30586Z" fill="#1CA0B9"/>
<path d="M93.6342 4.80985V7.24057H86.6079V4.80985H93.6342ZM88.2031 2.01453H91.439V12.892C91.439 13.1908 91.4845 13.4237 91.5757 13.5908C91.6668 13.7529 91.7934 13.8668 91.9555 13.9326C92.1226 13.9985 92.315 14.0314 92.5328 14.0314C92.6847 14.0314 92.8366 14.0187 92.9885 13.9934C93.1405 13.963 93.2569 13.9402 93.338 13.9251L93.8469 16.333C93.6848 16.3836 93.457 16.4419 93.1633 16.5077C92.8695 16.5786 92.5125 16.6216 92.0922 16.6368C91.3124 16.6672 90.6287 16.5634 90.0413 16.3254C89.4589 16.0874 89.0057 15.7177 88.6816 15.2164C88.3575 14.715 88.198 14.082 88.2031 13.3174V2.01453Z" fill="#1CA0B9"/>
<path d="M77.358 9.73209V16.4773H74.1221V4.80988H77.206V6.86839H77.3428C77.601 6.18982 78.034 5.65303 78.6417 5.25804C79.2494 4.85799 79.9862 4.65796 80.8521 4.65796C81.6624 4.65796 82.3688 4.8352 82.9714 5.18968C83.574 5.54416 84.0424 6.05056 84.3767 6.70888C84.7109 7.36213 84.878 8.14199 84.878 9.04845V16.4773H81.6421V9.62574C81.6472 8.91172 81.4649 8.35468 81.0952 7.95462C80.7255 7.5495 80.2166 7.34694 79.5684 7.34694C79.1329 7.34694 78.748 7.44063 78.4138 7.62799C78.0846 7.81536 77.8264 8.08882 77.639 8.44836C77.4567 8.80284 77.363 9.23075 77.358 9.73209Z" fill="#1CA0B9"/>
<path d="M66.6553 16.7052C65.4552 16.7052 64.4221 16.4621 63.5562 15.976C62.6953 15.4848 62.0319 14.791 61.566 13.8947C61.1001 12.9933 60.8672 11.9273 60.8672 10.6968C60.8672 9.49661 61.1001 8.4433 61.566 7.53684C62.0319 6.63039 62.6877 5.92396 63.5334 5.41756C64.3841 4.91116 65.3817 4.65796 66.5262 4.65796C67.2959 4.65796 68.0125 4.78203 68.6759 5.03016C69.3443 5.27323 69.9267 5.64037 70.423 6.13158C70.9243 6.62279 71.3142 7.2406 71.5927 7.98501C71.8713 8.72435 72.0105 9.59029 72.0105 10.5828V11.4716H62.1585V9.46623H68.9645C68.9645 9.00034 68.8632 8.58762 68.6607 8.22808C68.4581 7.86853 68.1771 7.58748 67.8175 7.38492C67.463 7.1773 67.0503 7.07349 66.5794 7.07349C66.0882 7.07349 65.6527 7.18743 65.2729 7.41531C64.8981 7.63812 64.6044 7.93943 64.3917 8.31923C64.179 8.69397 64.0702 9.11175 64.0651 9.57257V11.4792C64.0651 12.0565 64.1714 12.5553 64.3841 12.9756C64.6019 13.3959 64.9083 13.72 65.3033 13.9479C65.6982 14.1757 66.1667 14.2897 66.7085 14.2897C67.0681 14.2897 67.3972 14.239 67.696 14.1378C67.9948 14.0365 68.2505 13.8846 68.4632 13.682C68.6759 13.4794 68.8379 13.2313 68.9493 12.9376L71.9422 13.1351C71.7902 13.8542 71.4788 14.4821 71.0078 15.0189C70.542 15.5506 69.9393 15.9659 69.2 16.2646C68.4657 16.5584 67.6175 16.7052 66.6553 16.7052Z" fill="#1CA0B9"/>
<path d="M51.3511 16.4773H45.8364V0.920654H51.3967C52.9615 0.920654 54.3085 1.23209 55.4378 1.85496C56.567 2.47277 57.4355 3.3615 58.0432 4.52116C58.6559 5.68081 58.9623 7.06835 58.9623 8.68377C58.9623 10.3042 58.6559 11.6968 58.0432 12.8616C57.4355 14.0263 56.562 14.9201 55.4226 15.543C54.2882 16.1658 52.9311 16.4773 51.3511 16.4773ZM49.1255 13.6591H51.2144C52.1867 13.6591 53.0045 13.487 53.6679 13.1426C54.3363 12.7932 54.8377 12.2539 55.1719 11.5247C55.5112 10.7904 55.6808 9.84342 55.6808 8.68377C55.6808 7.53424 55.5112 6.59487 55.1719 5.86565C54.8377 5.13643 54.3389 4.59965 53.6755 4.2553C53.0121 3.91095 52.1943 3.73877 51.222 3.73877H49.1255V13.6591Z" fill="#1CA0B9"/>
<path d="M76.156 39.693V23.6502H79.3463V25.61H79.4906C79.6324 25.296 79.8375 24.977 80.1059 24.6529C80.3794 24.3237 80.7339 24.0503 81.1694 23.8325C81.6099 23.6097 82.1568 23.4983 82.8101 23.4983C83.6609 23.4983 84.4458 23.7211 85.1649 24.1667C85.8839 24.6073 86.4587 25.2732 86.8891 26.1645C87.3196 27.0507 87.5348 28.1622 87.5348 29.4991C87.5348 30.8006 87.3247 31.8995 86.9043 32.7958C86.4891 33.6871 85.9219 34.3631 85.2028 34.8239C84.4888 35.2797 83.6887 35.5076 82.8025 35.5076C82.1746 35.5076 81.6403 35.4038 81.1997 35.1961C80.7642 34.9885 80.4072 34.7277 80.1287 34.4137C79.8502 34.0947 79.6375 33.7731 79.4906 33.449H79.3919V39.693H76.156ZM79.3235 29.4839C79.3235 30.1777 79.4198 30.7829 79.6122 31.2994C79.8046 31.8159 80.0831 32.2185 80.4477 32.5071C80.8124 32.7907 81.2555 32.9325 81.777 32.9325C82.3037 32.9325 82.7493 32.7882 83.1139 32.4995C83.4785 32.2058 83.7545 31.8007 83.9419 31.2842C84.1343 30.7626 84.2306 30.1625 84.2306 29.4839C84.2306 28.8104 84.1369 28.2179 83.9495 27.7065C83.7621 27.195 83.4861 26.795 83.1215 26.5063C82.7569 26.2177 82.3088 26.0733 81.777 26.0733C81.2504 26.0733 80.8048 26.2126 80.4401 26.4911C80.0806 26.7696 79.8046 27.1646 79.6122 27.6761C79.4198 28.1876 79.3235 28.7902 79.3235 29.4839Z" fill="#1CA0B9"/>
<path d="M62.6199 39.693V23.6502H65.8102V25.61H65.9545C66.0963 25.296 66.3014 24.977 66.5698 24.6529C66.8432 24.3237 67.1977 24.0503 67.6332 23.8325C68.0738 23.6097 68.6207 23.4983 69.274 23.4983C70.1247 23.4983 70.9096 23.7211 71.6287 24.1667C72.3478 24.6073 72.9226 25.2732 73.353 26.1645C73.7835 27.0507 73.9987 28.1622 73.9987 29.4991C73.9987 30.8006 73.7885 31.8995 73.3682 32.7958C72.953 33.6871 72.3858 34.3631 71.6667 34.8239C70.9527 35.2797 70.1526 35.5076 69.2664 35.5076C68.6384 35.5076 68.1042 35.4038 67.6636 35.1961C67.2281 34.9885 66.8711 34.7277 66.5926 34.4137C66.3141 34.0947 66.1014 33.7731 65.9545 33.449H65.8558V39.693H62.6199ZM65.7874 29.4839C65.7874 30.1777 65.8836 30.7829 66.0761 31.2994C66.2685 31.8159 66.547 32.2185 66.9116 32.5071C67.2762 32.7907 67.7193 32.9325 68.2409 32.9325C68.7676 32.9325 69.2132 32.7882 69.5778 32.4995C69.9424 32.2058 70.2184 31.8007 70.4058 31.2842C70.5982 30.7626 70.6944 30.1625 70.6944 29.4839C70.6944 28.8104 70.6007 28.2179 70.4134 27.7065C70.226 27.195 69.95 26.795 69.5854 26.5063C69.2208 26.2177 68.7726 26.0733 68.2409 26.0733C67.7143 26.0733 67.2686 26.2126 66.904 26.4911C66.5445 26.7696 66.2685 27.1646 66.0761 27.6761C65.8836 28.1876 65.7874 28.7902 65.7874 29.4839Z" fill="#1CA0B9"/>
<path d="M49.361 35.3176H45.8364L51.2068 19.761H55.4454L60.8081 35.3176H57.2836L53.3868 23.3159H53.2653L49.361 35.3176ZM49.1407 29.2028H57.4659V31.7703H49.1407V29.2028Z" fill="#1CA0B9"/>
</svg>
