<svg width="120" height="40" viewBox="0 0 120 40" fill="none" xmlns="http://www.w3.org/2000/svg">
<path d="M34.7557 0H5.24435C2.3522 0 0 2.35283 0 5.24561V34.7544C0 37.6478 2.35283 40 5.24435 40H34.7557C37.6465 40 40 37.6478 40 34.7544V5.24561C40 2.35283 37.6465 0 34.7557 0ZM27.9507 20.2198C27.7003 21.8378 28.21 23.6507 27.7287 27.2947C27.2297 30.9754 26.3649 34.205 24.682 34.205C22.6919 34.205 22.9587 30.5319 23.1908 27.5433C23.259 26.6438 23.3094 25.8666 23.2615 25.3342C23.0596 23.1076 22.1015 21.5394 20.0356 21.5394C17.9818 21.5394 17.0104 23.1076 16.8092 25.3342C16.7612 25.8673 16.8117 26.6444 16.8798 27.5433C17.1119 30.5319 17.3775 34.205 15.3886 34.205C13.7057 34.205 12.8409 30.976 12.3419 27.2947C11.86 23.6507 12.3703 21.8378 12.1193 20.2198C11.6399 17.1542 8.96472 14.4059 9.79042 10.4969C10.249 8.32889 11.4431 7.30891 12.6245 6.87998C15.3502 5.88838 17.1094 7.79903 20.0344 7.79903C22.96 7.79903 24.7192 5.88838 27.4436 6.87998C28.6263 7.30828 29.8198 8.32826 30.2777 10.4969C31.1047 14.4059 28.4282 17.1542 27.9495 20.2198H27.9507Z" fill="#EDEDED"/>
<path d="M119.787 4.80982V7.24055H112.761V4.80982H119.787ZM114.356 2.0145H117.592V12.892C117.592 13.1907 117.638 13.4237 117.729 13.5908C117.82 13.7529 117.947 13.8668 118.109 13.9326C118.276 13.9985 118.468 14.0314 118.686 14.0314C118.838 14.0314 118.99 14.0187 119.142 13.9934C119.294 13.963 119.41 13.9402 119.491 13.925L120 16.333C119.838 16.3836 119.61 16.4418 119.316 16.5077C119.023 16.5786 118.666 16.6216 118.245 16.6368C117.466 16.6672 116.782 16.5634 116.195 16.3254C115.612 16.0874 115.159 15.7177 114.835 15.2163C114.511 14.715 114.351 14.082 114.356 13.3173V2.0145Z" fill="#EDEDED"/>
<path d="M111.278 8.1369L108.315 8.3192C108.265 8.066 108.156 7.83812 107.989 7.63556C107.822 7.42794 107.601 7.26336 107.328 7.14182C107.06 7.01522 106.738 6.95192 106.363 6.95192C105.862 6.95192 105.439 7.05827 105.095 7.27095C104.75 7.47858 104.578 7.7571 104.578 8.10651C104.578 8.38503 104.69 8.62051 104.912 8.81294C105.135 9.00537 105.518 9.15983 106.059 9.2763L108.171 9.70167C109.305 9.93462 110.151 10.3094 110.708 10.8259C111.265 11.3424 111.544 12.021 111.544 12.8616C111.544 13.6263 111.318 14.2973 110.868 14.8746C110.422 15.4518 109.809 15.9025 109.03 16.2266C108.255 16.5457 107.361 16.7052 106.348 16.7052C104.804 16.7052 103.573 16.3836 102.656 15.7405C101.745 15.0923 101.211 14.2112 101.054 13.0971L104.236 12.93C104.333 13.4009 104.566 13.7605 104.935 14.0086C105.305 14.2517 105.778 14.3732 106.356 14.3732C106.923 14.3732 107.379 14.2643 107.723 14.0466C108.072 13.8238 108.25 13.5377 108.255 13.1882C108.25 12.8945 108.126 12.654 107.883 12.4666C107.639 12.2742 107.265 12.1273 106.758 12.0261L104.738 11.6235C103.598 11.3956 102.75 11.0006 102.193 10.4385C101.641 9.87638 101.365 9.15983 101.365 8.28882C101.365 7.53935 101.568 6.89368 101.973 6.35184C102.383 5.80999 102.958 5.39221 103.697 5.0985C104.442 4.80478 105.313 4.65793 106.31 4.65793C107.784 4.65793 108.943 4.96936 109.789 5.59224C110.64 6.21511 111.136 7.06333 111.278 8.1369Z" fill="#EDEDED"/>
<path d="M95.7421 16.4773V4.80987H98.978V16.4773H95.7421ZM97.3677 3.30586C96.8866 3.30586 96.4739 3.14634 96.1295 2.82731C95.7902 2.50322 95.6206 2.11582 95.6206 1.66512C95.6206 1.21949 95.7902 0.837159 96.1295 0.518128C96.4739 0.194031 96.8866 0.0319824 97.3677 0.0319824C97.8488 0.0319824 98.259 0.194031 98.5982 0.518128C98.9426 0.837159 99.1148 1.21949 99.1148 1.66512C99.1148 2.11582 98.9426 2.50322 98.5982 2.82731C98.259 3.14634 97.8488 3.30586 97.3677 3.30586Z" fill="#EDEDED"/>
<path d="M93.6342 4.80982V7.24055H86.6079V4.80982H93.6342ZM88.2031 2.0145H91.439V12.892C91.439 13.1907 91.4845 13.4237 91.5757 13.5908C91.6668 13.7529 91.7934 13.8668 91.9555 13.9326C92.1226 13.9985 92.315 14.0314 92.5328 14.0314C92.6847 14.0314 92.8366 14.0187 92.9886 13.9934C93.1405 13.963 93.2569 13.9402 93.338 13.925L93.8469 16.333C93.6849 16.3836 93.457 16.4418 93.1633 16.5077C92.8695 16.5786 92.5125 16.6216 92.0922 16.6368C91.3124 16.6672 90.6287 16.5634 90.0413 16.3254C89.4589 16.0874 89.0057 15.7177 88.6816 15.2163C88.3575 14.715 88.198 14.082 88.2031 13.3173V2.0145Z" fill="#EDEDED"/>
<path d="M77.358 9.73206V16.4773H74.1221V4.80985H77.206V6.86837H77.3428C77.601 6.18979 78.034 5.653 78.6417 5.25801C79.2494 4.85796 79.9862 4.65793 80.8521 4.65793C81.6624 4.65793 82.3688 4.83517 82.9714 5.18965C83.574 5.54413 84.0424 6.05053 84.3767 6.70885C84.7109 7.36211 84.878 8.14196 84.878 9.04842V16.4773H81.6421V9.62571C81.6472 8.91169 81.4649 8.35465 81.0952 7.95459C80.7255 7.54947 80.2166 7.34691 79.5684 7.34691C79.1329 7.34691 78.748 7.4406 78.4138 7.62797C78.0847 7.81533 77.8264 8.08879 77.639 8.44833C77.4567 8.80281 77.363 9.23072 77.358 9.73206Z" fill="#EDEDED"/>
<path d="M66.6552 16.7052C65.4551 16.7052 64.422 16.4621 63.5561 15.976C62.6952 15.4848 62.0318 14.791 61.5659 13.8947C61.1 12.9933 60.8671 11.9273 60.8671 10.6968C60.8671 9.49658 61.1 8.44327 61.5659 7.53681C62.0318 6.63036 62.6876 5.92393 63.5333 5.41753C64.384 4.91113 65.3816 4.65793 66.5261 4.65793C67.2958 4.65793 68.0124 4.782 68.6758 5.03013C69.3442 5.2732 69.9266 5.64034 70.4228 6.13155C70.9242 6.62276 71.3141 7.24057 71.5926 7.98498C71.8711 8.72432 72.0104 9.59027 72.0104 10.5828V11.4715H62.1584V9.4662H68.9644C68.9644 9.00031 68.8631 8.58759 68.6606 8.22805C68.458 7.86851 68.177 7.58745 67.8174 7.38489C67.4629 7.17727 67.0502 7.07346 66.5793 7.07346C66.0881 7.07346 65.6525 7.1874 65.2727 7.41528C64.898 7.63809 64.6043 7.9394 64.3916 8.3192C64.1789 8.69394 64.07 9.11172 64.065 9.57254V11.4791C64.065 12.0564 64.1713 12.5552 64.384 12.9756C64.6018 13.3959 64.9081 13.72 65.3031 13.9478C65.6981 14.1757 66.1665 14.2897 66.7084 14.2897C67.0679 14.2897 67.3971 14.239 67.6959 14.1377C67.9946 14.0365 68.2504 13.8845 68.4631 13.682C68.6758 13.4794 68.8378 13.2313 68.9492 12.9376L71.942 13.1351C71.7901 13.8542 71.4787 14.4821 71.0077 15.0189C70.5418 15.5506 69.9392 15.9658 69.1999 16.2646C68.4656 16.5583 67.6174 16.7052 66.6552 16.7052Z" fill="#EDEDED"/>
<path d="M51.3511 16.4773H45.8364V0.920685H51.3967C52.9615 0.920685 54.3085 1.23212 55.4378 1.85499C56.567 2.4728 57.4355 3.36153 58.0432 4.52119C58.6559 5.68085 58.9623 7.06838 58.9623 8.6838C58.9623 10.3043 58.6559 11.6969 58.0432 12.8616C57.4355 14.0263 56.562 14.9201 55.4226 15.543C54.2882 16.1659 52.9311 16.4773 51.3511 16.4773ZM49.1255 13.6592H51.2144C52.1867 13.6592 53.0045 13.487 53.6679 13.1427C54.3364 12.7932 54.8377 12.2539 55.1719 11.5247C55.5112 10.7904 55.6808 9.84346 55.6808 8.6838C55.6808 7.53427 55.5112 6.5949 55.1719 5.86568C54.8377 5.13647 54.3389 4.59968 53.6755 4.25533C53.0121 3.91098 52.1943 3.7388 51.222 3.7388H49.1255V13.6592Z" fill="#EDEDED"/>
<path d="M76.1559 39.6929V23.6502H79.3462V25.6099H79.4905C79.6323 25.296 79.8374 24.9769 80.1058 24.6529C80.3793 24.3237 80.7337 24.0502 81.1692 23.8325C81.6098 23.6097 82.1567 23.4983 82.81 23.4983C83.6607 23.4983 84.4457 23.7211 85.1647 24.1667C85.8838 24.6073 86.4586 25.2732 86.889 26.1645C87.3195 27.0507 87.5347 28.1622 87.5347 29.4991C87.5347 30.8006 87.3245 31.8994 86.9042 32.7958C86.489 33.687 85.9218 34.3631 85.2027 34.8239C84.4887 35.2797 83.6886 35.5075 82.8024 35.5075C82.1744 35.5075 81.6402 35.4037 81.1996 35.1961C80.7641 34.9885 80.4071 34.7277 80.1286 34.4137C79.8501 34.0947 79.6374 33.7731 79.4905 33.449H79.3918V39.6929H76.1559ZM79.3234 29.4839C79.3234 30.1777 79.4196 30.7828 79.6121 31.2994C79.8045 31.8159 80.083 32.2185 80.4476 32.5071C80.8122 32.7907 81.2553 32.9325 81.7769 32.9325C82.3036 32.9325 82.7492 32.7882 83.1138 32.4995C83.4784 32.2058 83.7544 31.8007 83.9418 31.2842C84.1342 30.7626 84.2304 30.1625 84.2304 29.4839C84.2304 28.8104 84.1368 28.2179 83.9494 27.7064C83.762 27.195 83.486 26.7949 83.1214 26.5063C82.7568 26.2176 82.3086 26.0733 81.7769 26.0733C81.2503 26.0733 80.8046 26.2126 80.44 26.4911C80.0805 26.7696 79.8045 27.1646 79.6121 27.6761C79.4196 28.1875 79.3234 28.7901 79.3234 29.4839Z" fill="#EDEDED"/>
<path d="M62.6199 39.6929V23.6502H65.8102V25.6099H65.9545C66.0963 25.296 66.3014 24.9769 66.5698 24.6529C66.8433 24.3237 67.1977 24.0502 67.6332 23.8325C68.0738 23.6097 68.6207 23.4983 69.274 23.4983C70.1247 23.4983 70.9096 23.7211 71.6287 24.1667C72.3478 24.6073 72.9226 25.2732 73.353 26.1645C73.7835 27.0507 73.9987 28.1622 73.9987 29.4991C73.9987 30.8006 73.7885 31.8994 73.3682 32.7958C72.953 33.687 72.3858 34.3631 71.6667 34.8239C70.9527 35.2797 70.1526 35.5075 69.2664 35.5075C68.6384 35.5075 68.1042 35.4037 67.6636 35.1961C67.2281 34.9885 66.8711 34.7277 66.5926 34.4137C66.3141 34.0947 66.1014 33.7731 65.9545 33.449H65.8558V39.6929H62.6199ZM65.7874 29.4839C65.7874 30.1777 65.8836 30.7828 66.0761 31.2994C66.2685 31.8159 66.547 32.2185 66.9116 32.5071C67.2762 32.7907 67.7193 32.9325 68.2409 32.9325C68.7676 32.9325 69.2132 32.7882 69.5778 32.4995C69.9424 32.2058 70.2184 31.8007 70.4058 31.2842C70.5982 30.7626 70.6944 30.1625 70.6944 29.4839C70.6944 28.8104 70.6007 28.2179 70.4134 27.7064C70.226 27.195 69.95 26.7949 69.5854 26.5063C69.2208 26.2176 68.7726 26.0733 68.2409 26.0733C67.7143 26.0733 67.2686 26.2126 66.904 26.4911C66.5445 26.7696 66.2685 27.1646 66.0761 27.6761C65.8836 28.1875 65.7874 28.7901 65.7874 29.4839Z" fill="#EDEDED"/>
<path d="M49.361 35.3176H45.8364L51.2068 19.761H55.4454L60.8081 35.3176H57.2836L53.3869 23.3159H53.2653L49.361 35.3176ZM49.1407 29.2028H57.4659V31.7703H49.1407V29.2028Z" fill="#EDEDED"/>
</svg>
